<?xml version="1.0" encoding="UTF-8"?><svg version="1.1" id="Layer_1" xmlns="http://www.w3.org/2000/svg" xmlns:xlink="http://www.w3.org/1999/xlink" x="0px" y="0px" viewBox="0 0 1000 1000" enable-background="new 0 0 1000 1000" xml:space="preserve" width="1000px" height="1000px">
<g>
	<g id="Layer_1_1_">
		<rect x="540.361" y="519.589" fill="#FFC299" width="102.852" height="206.411"/>
		<rect x="540.361" y="519.589" fill="#FFFFFF" width="102.852" height="206.411"/>
		<rect x="540.361" y="519.589" opacity="0.34" fill="#333333" enable-background="new    " width="13.639" height="206.411"/>
		<path fill="#170E10" d="M643.213,731H540.361c-2.761,0-5-2.239-5-5V519.59c0-2.761,2.239-5,5-5h102.852c2.761,0,5,2.239,5,5V726
			C648.213,728.761,645.974,731,643.213,731z M545.361,721h92.852V524.59h-92.852V721z"/>
		<rect x="557.209" y="678" fill="#260005" width="71.875" height="6"/>
		<rect x="557.209" y="652" fill="#260005" width="71.875" height="6"/>
		<rect x="557.209" y="626" fill="#260005" width="71.875" height="6"/>
		<rect x="557.209" y="600" fill="#260005" width="71.875" height="6"/>
		<rect x="557.209" y="574" fill="#260005" width="71.875" height="6"/>
		<rect x="557.209" y="548" fill="#260005" width="71.875" height="6"/>
		<rect x="394.574" y="437.994" fill="#9DD7CE" width="148" height="288.006"/>
		<rect x="394.574" y="437.994" opacity="0.69" fill="#333333" enable-background="new    " width="13.426" height="288.006"/>
		<path fill="#C0BFBF" d="M326.565,229.7h24c6.627,0,12,5.373,12,12l0,0v36l0,0h-48l0,0v-36
			C314.565,235.073,319.938,229.7,326.565,229.7C326.565,229.7,326.565,229.7,326.565,229.7z"/>
		<path opacity="0.69" fill="#333333" enable-background="new    " d="M339.333,229.7h-12.768c-6.627,0-12,5.373-12,12l0,0v36
			h12.768v-36C327.333,235.073,332.706,229.7,339.333,229.7C339.333,229.7,339.333,229.7,339.333,229.7z"/>
		<path fill="#170E10" d="M362.565,282.7h-48c-2.761,0-5-2.239-5-5v-36c0.01-9.385,7.616-16.99,17-17h24
			c9.384,0.01,16.99,7.615,17,17v36C367.565,280.461,365.326,282.7,362.565,282.7z M319.565,272.7h38v-31
			c-0.004-3.864-3.136-6.996-7-7h-24c-3.864,0.004-6.996,3.136-7,7V272.7z"/>
		<path fill="#170E10" d="M339,235c-2.761,0-5-2.239-5-5v-47c0-2.761,2.239-5,5-5s5,2.239,5,5v47C344,232.761,341.761,235,339,235z"/>
		<path fill="#170E10" d="M945.568,731H922c-2.761,0-5-2.239-5-5s2.239-5,5-5h23.568c2.761,0,5,2.239,5,5S948.329,731,945.568,731z"/>
		<path fill="#170E10" d="M904.929,731H702.5c-2.761,0-5-2.239-5-5s2.239-5,5-5h202.429c2.761,0,5,2.239,5,5S907.69,731,904.929,731
			z"/>
		<path fill="#170E10" d="M678,731h-9c-2.761,0-5-2.239-5-5s2.239-5,5-5h9c2.761,0,5,2.239,5,5S680.761,731,678,731z"/>
		<path fill="#170E10" d="M654.5,731h-479c-2.761,0-5-2.239-5-5s2.239-5,5-5h479c2.761,0,5,2.239,5,5S657.261,731,654.5,731z"/>
		<path fill="#170E10" d="M160.083,731h-8.416c-2.761,0-5-2.239-5-5s2.239-5,5-5h8.416c2.761,0,5,2.239,5,5S162.844,731,160.083,731
			z"/>
		<path fill="#170E10" d="M135,731H65.275c-2.761,0-5-2.239-5-5s2.239-5,5-5H135c2.761,0,5,2.239,5,5S137.761,731,135,731z"/>
		<rect x="282.565" y="345.098" fill="#C0BFBF" width="112" height="380.902"/>
		<rect x="282.565" y="345.098" opacity="0.69" fill="#333333" enable-background="new    " width="11.435" height="380.902"/>
		<path fill="#170E10" d="M394.565,731h-112c-2.761,0-5-2.239-5-5V345.1c0-2.761,2.239-5,5-5h112c2.761,0,5,2.239,5,5V726
			C399.565,728.761,397.326,731,394.565,731z M287.565,721h102V350.1h-102V721z"/>
		<rect x="302" y="640" fill="#170E10" width="73" height="6"/>
		<rect x="302" y="652" fill="#170E10" width="73" height="6"/>
		<rect x="302" y="606" fill="#170E10" width="73" height="6"/>
		<rect x="302" y="618" fill="#170E10" width="73" height="6"/>
		<rect x="302" y="572" fill="#170E10" width="73" height="6"/>
		<rect x="302" y="584" fill="#170E10" width="73" height="6"/>
		<rect x="302" y="538" fill="#170E10" width="73" height="6"/>
		<rect x="302" y="550" fill="#170E10" width="73" height="6"/>
		<rect x="302" y="504" fill="#170E10" width="73" height="6"/>
		<rect x="302" y="516" fill="#170E10" width="73" height="6"/>
		<rect x="302" y="470" fill="#170E10" width="73" height="6"/>
		<rect x="302" y="482" fill="#170E10" width="73" height="6"/>
		<rect x="302" y="436" fill="#170E10" width="73" height="6"/>
		<rect x="302" y="448" fill="#170E10" width="73" height="6"/>
		<rect x="302" y="402" fill="#170E10" width="73" height="6"/>
		<rect x="302" y="414" fill="#170E10" width="73" height="6"/>
		<rect x="302" y="368" fill="#170E10" width="73" height="6"/>
		<rect x="302" y="380" fill="#170E10" width="73" height="6"/>
		<path fill="#C0BFBF" d="M338.565,265.1L338.565,265.1c20.435,0,37,16.565,37,37v43l0,0h-74l0,0v-43
			C301.565,281.665,318.13,265.1,338.565,265.1z"/>
		<path opacity="0.69" fill="#333333" enable-background="new    " d="M345.065,265.679c-2.145-0.384-4.32-0.579-6.5-0.581l0,0
			c-20.435,0-37,16.565-37,37v43h13v-43C314.568,284.173,327.419,268.828,345.065,265.679z"/>
		<path fill="#170E10" d="M375.565,350.1h-74c-2.761,0-5-2.239-5-5v-43c0-23.196,18.804-42,42-42s42,18.804,42,42v43
			C380.565,347.861,378.326,350.1,375.565,350.1z M306.565,340.1h64v-38c0-17.673-14.327-32-32-32s-32,14.327-32,32V340.1z"/>
		<path fill="#170E10" d="M542.574,731h-148c-2.761,0-5-2.239-5-5V437.994c0-2.761,2.239-5,5-5h148c2.761,0,5,2.239,5,5V726
			C547.574,728.761,545.335,731,542.574,731z M399.574,721h138V442.994h-138V721z"/>
		<rect x="394.574" y="417.994" fill="#BD2B3E" width="152.676" height="20"/>
		<path fill="#170E10" d="M548,442.994H394.574c-2.761,0-5-2.239-5-5v-20c0-2.761,2.239-5,5-5H548c2.761,0,5,2.239,5,5v20
			C553,440.755,550.761,442.994,548,442.994z M399.574,432.994H543v-10H399.574V432.994z"/>
		<rect x="314.566" y="674.5" fill="#FFFFFF" width="47.998" height="51.5"/>
		<rect x="314.566" y="676.5" opacity="0.34" fill="#333333" enable-background="new    " width="47.998" height="10.5"/>
		<rect x="314.566" y="687" opacity="0.34" fill="#333333" enable-background="new    " width="11.1" height="39"/>
		<path fill="#170E10" d="M362.564,731h-48c-2.761,0-5-2.239-5-5v-51.5c0-2.761,2.239-5,5-5h48c2.761,0,5,2.239,5,5V726
			C367.564,728.761,365.325,731,362.564,731z M319.564,721h38v-41.5h-38V721z"/>
		<rect x="513" y="670" fill="#170E10" width="10" height="15"/>
		<rect x="493" y="670" fill="#170E10" width="10" height="15"/>
		<rect x="473" y="670" fill="#170E10" width="10" height="15"/>
		<rect x="453" y="670" fill="#170E10" width="10" height="15"/>
		<rect x="433" y="670" fill="#170E10" width="10" height="15"/>
		<rect x="413" y="670" fill="#170E10" width="10" height="15"/>
		<rect x="513" y="630" fill="#170E10" width="10" height="15"/>
		<rect x="493" y="630" fill="#170E10" width="10" height="15"/>
		<rect x="473" y="630" fill="#170E10" width="10" height="15"/>
		<rect x="453" y="630" fill="#170E10" width="10" height="15"/>
		<rect x="433" y="630" fill="#170E10" width="10" height="15"/>
		<rect x="413" y="630" fill="#170E10" width="10" height="15"/>
		<rect x="513" y="590" fill="#170E10" width="10" height="15"/>
		<rect x="493" y="590" fill="#170E10" width="10" height="15"/>
		<rect x="473" y="590" fill="#170E10" width="10" height="15"/>
		<rect x="453" y="590" fill="#170E10" width="10" height="15"/>
		<rect x="433" y="590" fill="#170E10" width="10" height="15"/>
		<rect x="413" y="590" fill="#170E10" width="10" height="15"/>
		<rect x="513" y="550" fill="#170E10" width="10" height="15"/>
		<rect x="493" y="550" fill="#170E10" width="10" height="15"/>
		<rect x="473" y="550" fill="#170E10" width="10" height="15"/>
		<rect x="453" y="550" fill="#170E10" width="10" height="15"/>
		<rect x="433" y="550" fill="#170E10" width="10" height="15"/>
		<rect x="413" y="550" fill="#170E10" width="10" height="15"/>
		<rect x="513" y="510" fill="#170E10" width="10" height="15"/>
		<rect x="493" y="510" fill="#170E10" width="10" height="15"/>
		<rect x="473" y="510" fill="#170E10" width="10" height="15"/>
		<rect x="453" y="510" fill="#170E10" width="10" height="15"/>
		<rect x="433" y="510" fill="#170E10" width="10" height="15"/>
		<rect x="413" y="510" fill="#170E10" width="10" height="15"/>
		<rect x="513" y="470" fill="#170E10" width="10" height="15"/>
		<rect x="493" y="470" fill="#170E10" width="10" height="15"/>
		<rect x="473" y="470" fill="#170E10" width="10" height="15"/>
		<rect x="453" y="470" fill="#170E10" width="10" height="15"/>
		<rect x="433" y="470" fill="#170E10" width="10" height="15"/>
		<rect x="413" y="470" fill="#170E10" width="10" height="15"/>
		<rect x="437.5" y="668.333" fill="#FFC299" width="61.5" height="57.667"/>
		<rect x="437.5" y="668.333" opacity="0.69" fill="#333333" enable-background="new    " width="61.5" height="13.417"/>
		<rect x="437.5" y="681.75" opacity="0.69" fill="#333333" enable-background="new    " width="12" height="44.25"/>
		<path fill="#170E10" d="M499,731h-61.5c-2.761,0-5-2.239-5-5v-57.667c0-2.761,2.239-5,5-5H499c2.761,0,5,2.239,5,5V726
			C504,728.761,501.761,731,499,731z M442.5,721H494v-47.667h-51.5V721z"/>
		<rect x="220.859" y="438" fill="#BD2B3E" width="60.565" height="288"/>
		<rect x="220.859" y="438" opacity="0.53" fill="#333333" enable-background="new    " width="10.141" height="288"/>
		<path fill="#170E10" d="M281.424,731h-60.565c-2.761,0-5-2.239-5-5V438c0-2.761,2.239-5,5-5h60.565c2.761,0,5,2.239,5,5v288
			C286.424,728.761,284.185,731,281.424,731z M225.859,721h50.565V443h-50.565L225.859,721z"/>
		<rect x="236" y="630" fill="#260005" width="4" height="15"/>
		<g opacity="0.36">
			<rect x="236" y="650" fill="#FF99AA" width="4" height="6"/>
		</g>
		<rect x="249" y="630" fill="#260005" width="4" height="15"/>
		<g opacity="0.36">
			<rect x="249" y="650" fill="#FF99AA" width="4" height="6"/>
		</g>
		<rect x="262" y="630" fill="#260005" width="4" height="15"/>
		<g opacity="0.36">
			<rect x="262" y="650" fill="#FF99AA" width="4" height="6"/>
		</g>
		<rect x="236" y="586" fill="#260005" width="4" height="15"/>
		<g opacity="0.36">
			<rect x="236" y="606" fill="#FF99AA" width="4" height="6"/>
		</g>
		<rect x="249" y="586" fill="#260005" width="4" height="15"/>
		<g opacity="0.36">
			<rect x="249" y="606" fill="#FF99AA" width="4" height="6"/>
		</g>
		<rect x="262" y="586" fill="#260005" width="4" height="15"/>
		<g opacity="0.36">
			<rect x="262" y="606" fill="#FF99AA" width="4" height="6"/>
		</g>
		<rect x="236" y="542" fill="#260005" width="4" height="15"/>
		<g opacity="0.36">
			<rect x="236" y="562" fill="#FF99AA" width="4" height="6"/>
		</g>
		<rect x="249" y="542" fill="#260005" width="4" height="15"/>
		<g opacity="0.36">
			<rect x="249" y="562" fill="#FF99AA" width="4" height="6"/>
		</g>
		<rect x="262" y="542" fill="#260005" width="4" height="15"/>
		<g opacity="0.36">
			<rect x="262" y="562" fill="#FF99AA" width="4" height="6"/>
		</g>
		<rect x="236" y="498" fill="#260005" width="4" height="15"/>
		<g opacity="0.36">
			<rect x="236" y="518" fill="#FF99AA" width="4" height="6"/>
		</g>
		<rect x="249" y="498" fill="#260005" width="4" height="15"/>
		<g opacity="0.36">
			<rect x="249" y="518" fill="#FF99AA" width="4" height="6"/>
		</g>
		<rect x="262" y="498" fill="#260005" width="4" height="15"/>
		<g opacity="0.36">
			<rect x="262" y="518" fill="#FF99AA" width="4" height="6"/>
		</g>
		<rect x="236" y="454" fill="#260005" width="4" height="15"/>
		<g opacity="0.36">
			<rect x="236" y="474" fill="#FF99AA" width="4" height="6"/>
		</g>
		<rect x="249" y="454" fill="#260005" width="4" height="15"/>
		<g opacity="0.36">
			<rect x="249" y="474" fill="#FF99AA" width="4" height="6"/>
		</g>
		<rect x="262" y="454" fill="#260005" width="4" height="15"/>
		<g opacity="0.36">
			<rect x="262" y="474" fill="#FF99AA" width="4" height="6"/>
		</g>
		<rect x="242" y="678" fill="#FFFFFF" width="20" height="48"/>
		<path fill="#170E10" d="M262,731h-20c-2.761,0-5-2.239-5-5v-48c0-2.761,2.239-5,5-5h20c2.761,0,5,2.239,5,5v48
			C267,728.761,264.761,731,262,731z M247,721h10v-38h-10V721z"/>
		<path fill="#170E10" d="M525,419.667c-2.209,0-4-1.791-4-4V371c0-2.209,1.791-4,4-4s4,1.791,4,4v44.667
			C529,417.876,527.209,419.667,525,419.667z"/>
		<path fill="#170E10" d="M535.333,384.333h-20c-2.209,0-4-1.791-4-4s1.791-4,4-4h20c2.209,0,4,1.791,4,4
			S537.542,384.333,535.333,384.333z"/>
		<path fill="#170E10" d="M542.574,397.333h-33.815c-2.209,0-4-1.791-4-4s1.791-4,4-4h33.815c2.209,0,4,1.791,4,4
			S544.783,397.333,542.574,397.333z"/>
		<path fill="#170E10" d="M813,731c-2.761,0-5-2.239-5-5V549c0-2.761,2.239-5,5-5s5,2.239,5,5v177C818,728.761,815.761,731,813,731z
			"/>
		<path fill="#170E10" d="M775,564.167c-2.761,0-5-2.239-5-5V549c0-2.761,2.239-5,5-5s5,2.239,5,5v10.167
			C780,561.928,777.761,564.167,775,564.167z"/>
		<path fill="#170E10" d="M813,554c-2.761,0-5-2.239-5-5c0-7.732-6.268-14-14-14s-14,6.268-14,14c0,2.761-2.239,5-5,5s-5-2.239-5-5
			c0-13.255,10.745-24,24-24s24,10.745,24,24C818,551.761,815.761,554,813,554z"/>
		<path fill="#170E10" d="M792.5,582.333h-35c-2.761,0-5-2.238-5.001-4.999c0-1.197,0.429-2.355,1.211-3.263l17.5-20.333
			c1.801-2.093,4.958-2.33,7.051-0.529c0.189,0.163,0.366,0.34,0.529,0.529l17.5,20.333c1.802,2.093,1.565,5.25-0.527,7.051
			C794.855,581.904,793.698,582.333,792.5,582.333L792.5,582.333z M768.4,572.333h13.2l-6.6-7.668L768.4,572.333z"/>
		<path fill="#170E10" d="M197.5,731c-2.761,0-5-2.239-5-5V551c0-2.761,2.239-5,5-5s5,2.239,5,5v175
			C202.5,728.761,200.261,731,197.5,731z"/>
		<path fill="#170E10" d="M159.5,564.857c-2.761,0-5-2.239-5-5V551c0-2.761,2.239-5,5-5s5,2.239,5,5v8.857
			C164.5,562.618,162.261,564.857,159.5,564.857z"/>
		<path fill="#170E10" d="M197.5,556c-2.761,0-5-2.239-5-5c0-7.732-6.268-14-14-14s-14,6.268-14,14c0,2.761-2.239,5-5,5
			s-5-2.239-5-5c0-13.255,10.745-24,24-24s24,10.745,24,24C202.5,553.761,200.261,556,197.5,556z"/>
		<polygon fill="#FFFFFF" points="177,579.333 142,579.333 159.5,559 		"/>
		<path fill="#170E10" d="M177,584.333h-35c-2.761,0-5-2.238-5.001-4.999c0-1.197,0.429-2.355,1.211-3.263l17.5-20.333
			c1.801-2.093,4.958-2.33,7.051-0.529c0.189,0.163,0.366,0.34,0.529,0.529l17.5,20.333c1.802,2.093,1.565,5.25-0.527,7.051
			C179.355,583.904,178.197,584.333,177,584.333L177,584.333z M152.9,574.333h13.2l-6.6-7.668L152.9,574.333z"/>
		<ellipse fill="#FF6550" cx="106.275" cy="633.795" rx="41" ry="56.852"/>
		<path opacity="0.53" fill="#333333" enable-background="new    " d="M76.561,633.795c0-28.261,14.874-51.695,34.357-56.1
			c-2.179-0.498-4.408-0.75-6.643-0.754c-22.644,0-41,25.454-41,56.853s18.356,56.852,41,56.852
			c2.235-0.004,4.464-0.256,6.643-0.754C91.435,685.49,76.561,662.056,76.561,633.795z"/>
		<path fill="#170E10" d="M106.275,695.647c-25.364,0-46-27.747-46-61.852s20.636-61.853,46-61.853s46,27.747,46,61.853
			S131.639,695.647,106.275,695.647z M106.275,581.942c-19.851,0-36,23.261-36,51.853s16.149,51.852,36,51.852s36-23.26,36-51.852
			S126.125,581.942,106.275,581.942L106.275,581.942z"/>
		<path fill="#170E10" d="M107.848,672.2c-2.761,0-5-2.239-5-5c0-1.326,0.527-2.597,1.464-3.535l11.713-11.714
			c1.953-1.953,5.119-1.953,7.071,0c1.953,1.953,1.953,5.119,0.001,7.071l-11.714,11.708
			C110.448,671.671,109.175,672.201,107.848,672.2z"/>
		<path fill="#170E10" d="M106.274,654.353c-1.27,0.001-2.492-0.483-3.417-1.353l-12.5-11.7c-2.016-1.887-2.12-5.052-0.232-7.068
			c1.887-2.016,5.052-2.12,7.067-0.232l0,0l12.5,11.7c2.016,1.887,2.12,5.051,0.233,7.067c-0.946,1.01-2.267,1.583-3.651,1.583
			V654.353z"/>
		<ellipse fill="#E97E1C" cx="559.5" cy="668.002" rx="25.038" ry="34.397"/>
		<path opacity="0.53" fill="#333333" enable-background="new    " d="M544.462,668c0-16.644,8.606-30.526,20.038-33.709
			c-1.628-0.456-3.31-0.687-5-0.688c-13.828,0-25.038,15.4-25.038,34.4s11.21,34.4,25.038,34.4c1.69-0.001,3.372-0.232,5-0.687
			C553.068,698.528,544.462,684.647,544.462,668z"/>
		<path fill="#170E10" d="M559.5,707.4c-16.563,0-30.038-17.673-30.038-39.4s13.475-39.4,30.038-39.4s30.038,17.673,30.038,39.4
			S576.063,707.4,559.5,707.4z M559.5,638.606c-10.861,0-20.038,13.462-20.038,29.4s9.177,29.4,20.038,29.4
			s20.038-13.461,20.038-29.4s-9.177-29.401-20.038-29.401V638.606z"/>
		<path fill="#D44644" d="M762.768,635.21c3.786,35.538-23.051,49.819-37.7,48.92c-14.653,0.9-41.489-13.384-37.7-48.92
			c6.75-34.412,21.747-61.033,37.7-60.851C741.021,574.178,756.017,600.8,762.768,635.21z"/>
		<path opacity="0.53" fill="#333333" enable-background="new    " d="M734.7,682.13c-14.652,0.9-41.489-13.384-37.7-48.92
			c5.619-28.643,16.952-51.873,29.8-58.756c-0.573-0.067-1.149-0.098-1.726-0.095c-15.956-0.182-30.953,26.439-37.7,60.851
			c-3.786,35.536,23.05,49.82,37.7,48.92c4.039,0.142,8.066-0.533,11.837-1.987C736.145,682.171,735.4,682.174,734.7,682.13z"/>
		<path fill="#170E10" d="M723.827,689.168c-7.867,0-19.6-3.419-29.05-13.3c-6.885-7.2-14.624-20.194-12.386-41.191
			c0.015-0.145,0.037-0.289,0.065-0.433c3.455-17.613,9.145-33.6,16.023-45.016c7.835-13,16.967-19.873,26.42-19.873
			c0.11,0,0.221,0,0.33,0c9.455,0,18.585,6.867,26.422,19.873c6.877,11.416,12.568,27.4,16.023,45.016
			c0.028,0.144,0.05,0.288,0.065,0.434c2.238,21-5.5,33.988-12.386,41.189C745.4,686.28,732.9,689.5,725.064,689.139
			C724.664,689.157,724.252,689.168,723.827,689.168z M692.312,635.955c-1.758,17.054,4.293,27.357,9.694,33.006
			c7.222,7.553,16.643,10.554,22.752,10.18c0.204-0.014,0.408-0.014,0.612,0c6.137,0.375,15.533-2.628,22.755-10.181
			c5.4-5.648,11.451-15.951,9.693-33c-6.382-32.326-20.36-56.6-32.591-56.6H724.9C712.671,579.358,698.694,603.627,692.312,635.955z
			"/>
		<path fill="#170E10" d="M725.064,665.333c-2.761,0-5-2.239-5-5c0-1.326,0.527-2.598,1.465-3.536l12.635-12.634
			c1.96-1.945,5.126-1.932,7.071,0.028c1.934,1.95,1.934,5.094-0.001,7.044L728.6,663.869
			C727.663,664.808,726.391,665.335,725.064,665.333z"/>
		<path fill="#170E10" d="M725.064,643.5c-1.326,0.002-2.599-0.526-3.535-1.465l-13.782-13.782c-1.919-1.986-1.864-5.151,0.122-7.07
			c1.938-1.872,5.01-1.872,6.948,0l13.783,13.782c1.952,1.953,1.952,5.119-0.001,7.071C727.661,642.973,726.39,643.5,725.064,643.5
			L725.064,643.5z"/>
		<path fill="#170E10" d="M516,778H410.5c-2.761,0-5-2.239-5-5s2.239-5,5-5H516c2.761,0,5,2.239,5,5S518.761,778,516,778z"/>
		<path fill="#170E10" d="M542.574,778h-10.741c-2.761,0-5-2.239-5-5s2.239-5,5-5h10.741c2.761,0,5,2.239,5,5
			S545.335,778,542.574,778L542.574,778z"/>
		<path fill="#170E10" d="M557.417,778h-2.084c-2.761,0-5-2.239-5-5s2.239-5,5-5h2.084c2.761,0,5,2.239,5,5S560.178,778,557.417,778
			z"/>
		<path fill="#170E10" d="M385.5,778h-26.051c-2.761,0-5-2.239-5-5s2.239-5,5-5H385.5c2.761,0,5,2.239,5,5S388.261,778,385.5,778z"/>
		<path fill="#170E10" d="M559.5,729.4c-2.761,0-5-2.239-5-5v-45.9c0-2.761,2.239-5,5-5s5,2.239,5,5v45.9
			C564.5,727.161,562.261,729.4,559.5,729.4z"/>
		<path fill="#170E10" d="M725.064,731c-2.761,0-5-2.239-5-5V612.5c0-2.761,2.239-5,5-5s5,2.239,5,5V726
			C730.064,728.761,727.825,731,725.064,731z"/>
		<path fill="#170E10" d="M107.848,731c-2.761,0-5-2.239-5-5V623c0-2.761,2.239-5,5-5s5,2.239,5,5v103
			C112.848,728.761,110.609,731,107.848,731z"/>
		<ellipse fill="#E97E1C" cx="863.929" cy="630.591" rx="41" ry="56.852"/>
		<path opacity="0.53" fill="#333333" enable-background="new    " d="M832.929,630.591c0-29.05,15.717-52.995,36-56.417
			c-1.652-0.285-3.324-0.431-5-0.436c-22.643,0-41,25.454-41,56.853s18.357,56.852,41,56.852c1.676-0.005,3.348-0.151,5-0.436
			C848.646,683.585,832.929,659.64,832.929,630.591z"/>
		<path fill="#170E10" d="M863.93,692.443c-25.365,0-46-27.747-46-61.852s20.635-61.853,46-61.853s46,27.747,46,61.853
			S889.294,692.443,863.93,692.443z M863.93,578.743c-19.851,0-36,23.261-36,51.853s16.149,51.852,36,51.852s36-23.26,36-51.852
			s-16.15-51.858-36-51.858V578.743z"/>
		<path fill="#170E10" d="M865.5,673.991c-2.761-0.001-5-2.24-4.999-5.001c0-1.325,0.527-2.596,1.464-3.534l11.714-11.714
			c1.986-1.919,5.151-1.864,7.07,0.122c1.872,1.938,1.872,5.01,0,6.948l-11.714,11.714
			C868.099,673.466,866.826,673.993,865.5,673.991z"/>
		<path fill="#170E10" d="M863.929,656.148c-1.269,0.002-2.491-0.481-3.417-1.35l-12.5-11.705c-2.016-1.888-2.12-5.052-0.232-7.068
			s5.052-2.12,7.068-0.232l12.5,11.705c2.015,1.888,2.119,5.052,0.231,7.067C866.633,655.575,865.312,656.147,863.929,656.148
			L863.929,656.148z"/>
		<path fill="#170E10" d="M865.5,730.565c-2.761,0-5-2.239-5-5V624.718c0-2.761,2.239-5,5-5s5,2.239,5,5v100.847
			C870.5,728.326,868.261,730.565,865.5,730.565z"/>
		<rect x="324.333" y="308.667" fill="#170E10" width="6" height="36.431"/>
		<rect x="346" y="308.667" fill="#170E10" width="6" height="36.431"/>
		<circle opacity="0.55" fill="#FFFFFF" enable-background="new    " cx="106.032" cy="601.032" r="3.532"/>
		<circle opacity="0.55" fill="#FFFFFF" enable-background="new    " cx="127.597" cy="639" r="4.5"/>
		<circle opacity="0.53" fill="#333333" enable-background="new    " cx="124.061" cy="615.232" r="4.5"/>
		<circle opacity="0.53" fill="#333333" enable-background="new    " cx="93.775" cy="621" r="3.339"/>
		<circle opacity="0.55" fill="#FFFFFF" enable-background="new    " cx="556.375" cy="651.875" r="2.375"/>
		<circle opacity="0.53" fill="#333333" enable-background="new    " cx="570.875" cy="661.375" r="3.375"/>
		<circle opacity="0.55" fill="#FFFFFF" enable-background="new    " cx="723.632" cy="603" r="2.375"/>
		<circle opacity="0.55" fill="#FFFFFF" enable-background="new    " cx="743.257" cy="631.014" r="3.414"/>
		<circle opacity="0.53" fill="#333333" enable-background="new    " cx="738.132" cy="612.5" r="3.375"/>
		<circle opacity="0.53" fill="#333333" enable-background="new    " cx="711.282" cy="649.5" r="3.375"/>
		<circle opacity="0.55" fill="#FFFFFF" enable-background="new    " cx="879.06" cy="614.604" r="4.723"/>
		<circle opacity="0.53" fill="#333333" enable-background="new    " cx="877.14" cy="639.304" r="3.362"/>
		<circle opacity="0.53" fill="#333333" enable-background="new    " cx="860.908" cy="603.798" r="3.375"/>
		<path fill="#E97E1C" d="M712.763,726c0-11.451,9.283-20.734,20.734-20.734s20.734,9.283,20.734,20.734l0,0H712.763z"/>
		<path opacity="0.53" fill="#333333" enable-background="new    " d="M739.648,706.194c-10.947-3.389-22.568,2.738-25.957,13.685
			c-0.614,1.982-0.927,4.046-0.928,6.121h12.3C725.064,716.917,730.974,708.891,739.648,706.194z"/>
		<path fill="#170E10" d="M754.23,731h-41.467c-2.761,0-5-2.239-5-5c-0.089-14.212,11.359-25.806,25.572-25.895
			c14.212-0.089,25.806,11.359,25.895,25.572c0.001,0.108,0.001,0.216,0,0.324C759.23,728.761,756.991,731,754.23,731z M718.577,721
			h29.839c-2.763-8.24-11.683-12.68-19.923-9.916C723.816,712.652,720.145,716.323,718.577,721z"/>
		<path fill="#D44644" d="M739,726c0.015-16.458,13.368-29.788,29.827-29.773c16.437,0.015,29.759,13.336,29.773,29.773H739z"/>
		<path opacity="0.53" fill="#333333" enable-background="new    " d="M774.548,696.758c-16.149-3.174-31.814,7.343-34.988,23.492
			c-0.372,1.894-0.56,3.819-0.56,5.75h11.5C750.502,711.76,760.576,699.51,774.548,696.758z"/>
		<path fill="#170E10" d="M798.6,731H739c-2.761,0-5-2.239-5-5c-0.015-19.219,15.553-34.812,34.772-34.828
			c19.22-0.015,34.812,15.553,34.828,34.772c0,0.018,0,0.037,0,0.055C803.6,728.761,801.361,731,798.6,731z M744.5,721h48.589
			c-2.751-13.417-15.859-22.064-29.276-19.313C754.091,703.681,746.494,711.278,744.5,721z"/>
	</g>
</g>
</svg>