<?xml version="1.0" encoding="UTF-8"?><svg version="1.1" id="Layer_1" xmlns="http://www.w3.org/2000/svg" xmlns:xlink="http://www.w3.org/1999/xlink" x="0px" y="0px" viewBox="0 0 1000 1000" enable-background="new 0 0 1000 1000" xml:space="preserve" width="1000px" height="1000px">
<path fill="#91A1AE" d="M687.443,272.333c-4.36-0.004-8.589,1.498-11.969,4.252c-8.149-19.344-30.436-28.419-49.78-20.27
	c-14.087,5.935-23.248,19.732-23.251,35.018h104C706.443,280.84,697.936,272.333,687.443,272.333z"/>
<rect x="330.072" y="502.819" fill="#EA633A" width="163.381" height="193.848"/>
<rect x="468.121" y="600.743" fill="#D85335" width="18" height="8.308"/>
<rect x="330.072" y="573.5" fill="#D85335" width="18" height="8.308"/>
<rect x="393.32" y="656.846" fill="#D85335" width="18" height="8.308"/>
<rect x="427.668" y="687.846" fill="#D85335" width="18" height="8.308"/>
<rect x="458.12" y="590.435" fill="#D85335" width="18.001" height="8.308"/>
<rect x="330.072" y="502.819" fill="#CE4829" stroke="#CE4829" stroke-width="6" stroke-linecap="round" stroke-linejoin="round" width="163.381" height="45.975"/>
<path fill="#1C1A34" d="M493.453,699.667H330.072c-1.657,0-3-1.343-3-3V502.818c0-1.657,1.343-3,3-3h163.381c1.657,0,3,1.343,3,3
	v193.849C496.453,698.324,495.11,699.667,493.453,699.667z M333.072,693.667h157.381V505.818H333.072L333.072,693.667z"/>
<polygon fill="#EC1E39" points="527.798,538.563 293.55,538.563 353.914,378.647 588.162,378.647 "/>
<rect x="314.748" y="519.308" fill="#F22F50" width="18" height="8.308"/>
<rect x="324.998" y="509" fill="#DD1738" width="18" height="8.308"/>
<rect x="304.747" y="509" fill="#F22F50" width="18.001" height="8.308"/>
<rect x="353.203" y="411.054" fill="#F22F50" width="18" height="8.308"/>
<rect x="343.203" y="400.747" fill="#F22F50" width="18.001" height="8.308"/>
<path opacity="0.82" fill="#C91B38" enable-background="new    " d="M495.437,538.563l-16.937-65.73l-12.738,10.329
	c-5.29,4.287-13.053,3.473-17.34-1.816c-0.11-0.136-0.218-0.275-0.322-0.416l0,0c-4.015-5.413-2.938-13.047,2.417-17.139
	l84.378-64.476c4.477-3.421,10.704-3.371,15.126,0.121l26.874,21.226L495.437,538.563z"/>
<path fill="#1C1A34" d="M527.8,541.563H293.55c-1.657,0-3-1.344-2.999-3.001c0-0.362,0.066-0.72,0.193-1.058l60.363-159.917
	c0.441-1.168,1.559-1.941,2.807-1.941h234.248c1.657,0,3,1.343,3,2.999c0,0.362-0.065,0.722-0.193,1.061L530.6,539.623
	C530.16,540.788,529.046,541.56,527.8,541.563z M297.891,535.563h227.833l58.1-153.917H355.988L297.891,535.563z"/>
<rect x="433.897" y="342.333" fill="#1C1931" width="38.443" height="36.313"/>
<rect x="456.333" y="365.432" fill="#272544" width="14.785" height="8.308"/>
<rect x="431.856" y="357.125" fill="#272544" width="13.812" height="8.308"/>
<path fill="#1C1A34" d="M472.339,381.646H433.9c-1.657,0-3-1.343-3-3v-36.313c0-1.657,1.343-3,3-3h38.443c1.657,0,3,1.343,3,3
	v36.313c0,1.657-1.343,3-3,3C472.342,381.646,472.34,381.646,472.339,381.646z M436.896,375.646h32.443v-30.313H436.9
	L436.896,375.646z"/>
<rect x="424.286" y="327.795" fill="#282642" width="57.664" height="14.539"/>
<path fill="#1C1A34" d="M481.95,345.333h-57.664c-1.657,0-3-1.343-3-3V327.8c0-1.657,1.343-3,3-3h57.664c1.657,0,3,1.343,3,3v14.538
	C484.947,343.993,483.605,345.333,481.95,345.333z M427.286,339.333h51.664V330.8h-51.664V339.333z"/>
<rect x="367.763" y="560.667" fill="#71B8BC" width="88" height="72"/>
<polygon opacity="0.62" fill="#D0F6FB" enable-background="new    " points="367.763,601.566 367.763,627.967 418.876,560.667 
	398.825,560.667 "/>
<polygon opacity="0.62" fill="#D0F6FB" enable-background="new    " points="371.102,632.667 381.128,632.667 435.811,560.667 
	425.785,560.667 "/>
<path fill="#1C1A34" d="M455.763,635.667h-88c-1.657,0-3-1.343-3-3v-72c0-1.657,1.343-3,3-3h88c1.657,0,3,1.343,3,3v72
	C458.763,634.324,457.42,635.667,455.763,635.667z M370.763,629.667h82v-66h-82V629.667z"/>
<rect x="362.763" y="636.667" fill="#D14D2F" stroke="#CE4829" stroke-width="6" stroke-linecap="round" stroke-linejoin="round" width="98" height="12"/>
<rect x="362.763" y="632.667" fill="#656B82" width="98" height="12"/>
<path fill="#1C1A34" d="M460.763,647.667h-98c-1.657,0-3-1.343-3-3v-12c0-1.657,1.343-3,3-3h98c1.657,0,3,1.343,3,3v12
	C463.763,646.324,462.42,647.667,460.763,647.667z M365.763,641.667h92v-6h-92V641.667z"/>
<path fill="#1FBE6A" d="M871.787,523.209c15.386,25.711,26.592,109.8-21.653,109.8s-37.039-84.088-21.653-109.8
	c6.354-10.62,14.828-15.534,21.653-15.534S865.433,512.589,871.787,523.209z"/>
<path fill="#1C1A34" d="M850.134,636.008c-13.134,0-23.476-6-29.908-17.342c-6.8-11.988-9.355-30.231-7.2-51.368
	c1.8-17.645,6.854-35.555,12.882-45.629c6.367-10.642,15.424-16.994,24.228-16.994s17.86,6.352,24.227,16.994
	c6.029,10.073,11.085,27.983,12.883,45.628c2.153,21.137-0.4,39.38-7.2,51.368C873.61,630.011,863.268,636.008,850.134,636.008z
	 M850.134,510.675c-5.153,0-12.87,3.7-19.079,14.074c-5.613,9.379-10.347,26.318-12.062,43.156
	c-2.028,19.91,0.264,36.887,6.452,47.8c5.38,9.489,13.687,14.3,24.689,14.3s19.309-4.812,24.689-14.3
	c6.189-10.915,8.48-27.892,6.452-47.8c-1.715-16.838-6.45-33.777-12.062-43.156l0,0C863,514.372,855.286,510.675,850.134,510.675z"/>
<path fill="#2CDF78" d="M825.682,494.224c15.385,30.019,26.591,128.2-21.654,128.2s-37.038-98.177-21.653-128.2
	c6.355-12.4,14.828-18.137,21.653-18.137S819.327,481.824,825.682,494.224z"/>
<path fill="#1C1A34" d="M804.028,625.42c-11.908,0-21.25-5.4-27.764-16.065c-17.984-29.423-8.517-93.167,3.441-116.5
	c6.344-12.377,15.437-19.768,24.323-19.768s17.98,7.391,24.324,19.768l0,0c11.958,23.333,21.424,87.077,3.441,116.5
	C825.278,620.015,815.937,625.42,804.028,625.42z M804.028,479.087c-5.088,0-12.747,4.336-18.983,16.5
	c-5.908,11.527-10.882,33.027-12.376,53.5c-1.8,24.7,1.291,44.99,8.714,57.136c5.426,8.877,12.833,13.193,22.645,13.193
	s17.22-4.316,22.646-13.193c7.423-12.146,10.517-32.437,8.714-57.136c-1.494-20.472-6.468-41.972-12.376-53.5l0,0
	C816.775,483.423,809.116,479.087,804.028,479.087L804.028,479.087z"/>
<path fill="#2BCCA0" d="M256.342,619.416L256.342,619.416c-20.754-0.008-36.566-21.355-36.75-44.7
	c-0.62-58.657,14.42-121.123,39.13-184.874c0.464-1.55,2.096-2.43,3.646-1.967c1.01,0.302,1.78,1.124,2.015,2.152
	c21.473,64.954,31.49,126.938,28.714,186.071C292.157,599.009,276.645,619.413,256.342,619.416z"/>
<path fill="#1C1A34" d="M256.342,622.416L256.342,622.416c-21.71-0.009-39.541-21.4-39.748-47.674
	c-0.585-55.351,12.281-116.189,39.332-185.982c0.853-2.428,3.163-4.039,5.737-4c2.591,0.107,4.829,1.847,5.571,4.332
	c21.875,66.171,31.586,129.139,28.861,187.153c-0.379,11.661-4.516,22.887-11.795,32.005
	C276.809,617.384,266.879,622.414,256.342,622.416z M261.52,390.927L261.52,390.927C234.748,460,222.015,520.1,222.592,574.688
	c0.178,22.615,15.634,41.72,33.751,41.728c17.7,0,32.842-18.144,33.756-40.438c2.691-57.3-6.92-119.536-28.564-185.007
	L261.52,390.927z"/>
<path fill="#21AA7F" d="M212.247,448.911c15.385,34.612,26.591,147.808-21.654,147.808s-37.038-113.2-21.653-147.808
	C175.3,434.615,183.768,428,190.593,428S205.892,434.615,212.247,448.911z"/>
<path fill="#1C1A34" d="M190.593,599.719c-10.677,0-19.319-4.966-25.683-14.759c-12.494-19.228-12.773-52.356-11.827-70.393
	c1.331-25.343,6.6-52.219,13.116-66.875C172.515,433.483,181.634,425,190.593,425s18.079,8.483,24.4,22.692
	c6.515,14.656,11.785,41.531,13.115,66.875c0.946,18.037,0.668,51.164-11.826,70.392
	C209.913,594.753,201.271,599.719,190.593,599.719z M190.593,431c-2.749,0-5.938,1.53-8.979,4.309
	c-3.685,3.366-7.119,8.491-9.933,14.82c-6.245,14.05-11.311,40.072-12.605,64.753c-1.569,29.887,2.29,53.613,10.865,66.808
	c5.26,8.094,12.016,12.029,20.652,12.029s15.393-3.935,20.653-12.03c8.575-13.195,12.434-36.921,10.865-66.808
	c-1.295-24.68-6.361-50.7-12.606-64.752l0,0c-2.813-6.329-6.248-11.454-9.932-14.82C196.532,432.53,193.343,431,190.593,431z"/>
<path fill="#2BCCA0" d="M166.141,494.224c15.385,30.019,26.592,128.2-21.653,128.2s-37.039-98.177-21.654-128.2
	c6.355-12.4,14.828-18.137,21.654-18.137S159.786,481.824,166.141,494.224z"/>
<path fill="#1C1A34" d="M144.488,625.42c-11.908,0-21.25-5.4-27.764-16.064c-17.984-29.424-8.517-93.168,3.441-116.5
	c6.343-12.377,15.436-19.768,24.323-19.768s17.979,7.39,24.323,19.768l0,0c11.958,23.333,21.424,87.077,3.441,116.5
	C165.737,620.016,156.4,625.42,144.488,625.42z M144.488,479.087c-5.089,0-12.747,4.336-18.984,16.5
	c-5.907,11.527-10.881,33.027-12.376,53.5c-1.8,24.7,1.292,44.99,8.715,57.136c5.426,8.876,12.833,13.192,22.645,13.192
	s17.219-4.316,22.644-13.192c7.423-12.146,10.518-32.437,8.715-57.136c-1.494-20.473-6.468-41.973-12.376-53.5
	C157.234,483.423,149.576,479.087,144.488,479.087L144.488,479.087z"/>
<polygon fill="#FF9839" points="733.719,696.667 493.453,696.667 493.453,439.818 613.586,336.53 733.719,439.818 "/>
<rect x="716" y="500.692" fill="#ED852F" width="18" height="8.308"/>
<rect x="706" y="511" fill="#ED852F" width="18" height="8.308"/>
<rect x="695.999" y="500.692" fill="#ED852F" width="18.001" height="8.308"/>
<rect x="622.084" y="413.401" fill="#ED852F" width="18.001" height="8.308"/>
<rect x="503.454" y="511" fill="#ED852F" width="18" height="8.308"/>
<rect x="693.334" y="652" fill="#ED852F" width="18" height="8.308"/>
<rect x="552.121" y="451.653" fill="#ED852F" width="18" height="8.308"/>
<rect x="493.453" y="500.692" fill="#ED852F" width="18.001" height="8.308"/>
<rect x="484.453" y="382.404" fill="#DD1738" width="18" height="8.308"/>
<rect x="446.762" y="505.846" fill="#DD1738" width="18.001" height="8.308"/>
<rect x="603.367" y="588.359" fill="#ED852F" width="18" height="8.308"/>
<rect x="593.366" y="578.051" fill="#ED852F" width="18.001" height="8.308"/>
<polygon fill="#EA633A" points="493.453,439.818 493.453,455.38 613.33,353.939 733.719,455.807 733.719,439.818 613.586,336.53 "/>
<path fill="#1C1A34" d="M733.719,699.667H493.453c-1.657,0-3-1.343-3-3V439.818c0-0.874,0.381-1.705,1.044-2.275L611.63,334.255
	c1.125-0.967,2.787-0.967,3.912,0l120.133,103.288c0.663,0.57,1.044,1.401,1.044,2.275v256.849
	C736.719,698.324,735.376,699.667,733.719,699.667z M496.453,693.667h234.266V441.2L613.586,340.487L496.453,441.2V693.667z"/>
<rect x="621.334" y="560.667" fill="#99393E" width="72" height="136"/>
<rect x="685.099" y="560.667" fill="#822E36" width="8.235" height="136"/>
<path fill="#1C1A34" d="M693.334,699.667h-72c-1.657,0-3-1.343-3-3v-136c0-1.657,1.343-3,3-3h72c1.657,0,3,1.343,3,3v136
	C696.334,698.324,694.991,699.667,693.334,699.667z M624.334,693.667h66v-130h-66V693.667z"/>
<rect x="531.366" y="560.667" fill="#89C6CC" width="62" height="72"/>
<polygon opacity="0.92" fill="#D0F6FB" enable-background="new    " points="531.366,620.608 576.89,560.667 556.839,560.667 
	531.366,594.206 "/>
<polygon opacity="0.92" fill="#D0F6FB" enable-background="new    " points="593.366,561.271 593.366,560.667 583.799,560.667 
	531.366,629.705 531.366,632.667 539.142,632.667 "/>
<rect x="524.366" y="636.667" fill="#EA633A" stroke="#EA633A" stroke-width="6" stroke-linecap="round" stroke-linejoin="round" width="76" height="12"/>
<path fill="#1C1A34" d="M593.366,635.667h-62c-1.657,0-3-1.343-3-3v-72c0-1.657,1.343-3,3-3h62c1.657,0,3,1.343,3,3v72
	C596.366,634.324,595.023,635.667,593.366,635.667z M534.366,629.667h56v-66h-56V629.667z"/>
<rect x="524.366" y="632.667" fill="#656B82" width="76" height="12"/>
<path fill="#1C1A34" d="M600.366,647.667h-76c-1.657,0-3-1.343-3-3v-12c0-1.657,1.343-3,3-3h76c1.657,0,3,1.343,3,3v12
	C603.366,646.324,602.023,647.667,600.366,647.667z M527.366,641.667h70v-6h-70V641.667z"/>
<circle fill="#98AAB5" cx="613.586" cy="449.662" r="29"/>
<path fill="#7B929E" d="M613.586,420.662c-2.706,0-5.399,0.379-8,1.126c15.394,4.421,24.29,20.484,19.869,35.878
	c-2.758,9.604-10.265,17.111-19.869,19.869c15.394,4.422,31.457-4.473,35.879-19.867c4.422-15.394-4.473-31.457-19.867-35.879
	C618.993,421.041,616.296,420.661,613.586,420.662z"/>
<path fill="#1C1A34" d="M613.586,481.662c-17.673,0-32-14.327-32-32s14.327-32,32-32s32,14.327,32,32
	C645.566,467.327,631.251,481.642,613.586,481.662z M613.586,423.662c-14.359,0-26,11.641-26,26s11.641,26,26,26s26-11.641,26-26
	C639.57,435.309,627.939,423.678,613.586,423.662z"/>
<path fill="#6E818E" d="M623.334,674.667h68c7.732,0,14,6.268,14,14v8l0,0h-96l0,0v-8
	C609.334,680.935,615.602,674.667,623.334,674.667z"/>
<rect x="609.334" y="687.333" fill="#5C6F7A" width="96" height="9.333"/>
<path fill="#1C1A34" d="M705.334,699.667h-96c-1.657,0-3-1.343-3-3v-8c0.01-9.385,7.615-16.99,17-17h68
	c9.385,0.01,16.99,7.615,17,17v8C708.334,698.324,706.991,699.667,705.334,699.667z M612.334,693.667h90v-5
	c-0.007-6.072-4.928-10.993-11-11h-68c-6.072,0.007-10.993,4.928-11,11V693.667z"/>
<path fill="#1C1A34" d="M897,700.667H109.635c-2.209,0-4-1.791-4-4s1.791-4,4-4H897c2.209,0,4,1.791,4,4
	S899.209,700.667,897,700.667z"/>
<path fill="#FF4B53" d="M767.428,458.472L767.428,458.472c-3.409,4.101-9.498,4.663-13.599,1.253
	c-0.021-0.018-0.042-0.035-0.064-0.053L613.33,340.84L472.905,459.668c-4.072,3.444-10.165,2.936-13.61-1.136
	c-0.018-0.021-0.036-0.042-0.053-0.064l0,0c-3.389-4.076-2.859-10.122,1.187-13.547L598.38,328.19l14.96-12.66l14.94,12.65
	l137.961,116.745C770.288,448.35,770.817,454.396,767.428,458.472z"/>
<rect x="504.552" y="416.508" fill="#EA3F54" width="14.449" height="8.308"/>
<rect x="611.668" y="328.795" fill="#EA3F54" width="13.336" height="8.308"/>
<path fill="#1C1A34" d="M759.979,464.955c-2.988,0.002-5.878-1.062-8.152-3L613.33,344.77L474.843,461.958
	c-5.336,4.516-13.322,3.85-17.838-1.486c-0.023-0.027-0.046-0.055-0.069-0.082c-4.422-5.348-3.73-13.257,1.555-17.755L611.4,313.24
	c1.119-0.947,2.757-0.947,3.876,0l14.941,12.651l137.96,116.744c5.336,4.517,6,12.504,1.483,17.84
	c-2.156,2.547-5.23,4.14-8.554,4.431C760.731,464.938,760.354,464.955,759.979,464.955z M613.33,337.84
	c0.71-0.001,1.397,0.251,1.938,0.71L755.7,457.379c2.806,2.375,7.007,2.026,9.382-0.781c0.012-0.015,0.025-0.029,0.037-0.044l0,0
	c2.326-2.813,1.961-6.972-0.818-9.338L613.339,319.46L462.367,447.215c-2.78,2.366-3.144,6.526-0.818,9.339
	c2.351,2.826,6.549,3.211,9.375,0.86c0.014-0.012,0.029-0.024,0.043-0.036L611.393,338.55
	C611.934,338.091,612.621,337.839,613.33,337.84z"/>
<path fill="#1C1A34" d="M804.548,699.667c-1.657,0-3-1.343-3-3v-152.58c0-1.657,1.343-3,3-3s3,1.343,3,3v152.58
	C807.548,698.324,806.205,699.667,804.548,699.667z"/>
<path fill="#1C1A34" d="M850.653,699.667c-1.657,0-3-1.343-3-3v-152.58c0-1.657,1.343-3,3-3s3,1.343,3,3v152.58
	C853.653,698.324,852.31,699.667,850.653,699.667z"/>
<path fill="#1C1A34" d="M613.586,481.662c-1.657,0-3-1.343-3-3v-58c0-1.657,1.343-3,3-3s3,1.343,3,3v58
	C616.586,480.319,615.243,481.662,613.586,481.662z"/>
<path fill="#1C1A34" d="M642.586,452.662h-58c-1.657,0-3-1.343-3-3s1.343-3,3-3h58c1.657,0,3,1.343,3,3
	S644.243,452.662,642.586,452.662z"/>
<path fill="#1C1A34" d="M162.333,625.667h188c1.657,0,3,1.343,3,3v4c0,1.657-1.343,3-3,3h-188c-1.657,0-3-1.343-3-3v-4
	C159.333,627.01,160.676,625.667,162.333,625.667z"/>
<path fill="#1C1A34" d="M162.333,654h188c1.657,0,3,1.343,3,3v4c0,1.657-1.343,3-3,3h-188c-1.657,0-3-1.343-3-3v-4
	C159.333,655.343,160.676,654,162.333,654z"/>
<path fill="#1C1A34" d="M191.113,699.667c-1.657,0-3-1.343-3-3V491.27c0-1.657,1.343-3,3-3s3,1.343,3,3v205.4
	C194.111,698.326,192.769,699.667,191.113,699.667z"/>
<path fill="#1C1A34" d="M145.007,699.667c-1.657,0-3-1.343-3-3v-152.58c0-1.657,1.343-3,3-3s3,1.343,3,3v152.58
	C148.007,698.324,146.664,699.667,145.007,699.667z"/>
<path fill="#1C1A34" d="M258.681,699.667c-1.657,0-3-1.343-3-3V506.5c0-1.657,1.343-3,3-3s3,1.343,3,3v190.167
	C261.681,698.324,260.338,699.667,258.681,699.667z"/>
<polygon fill="#663333" points="337.873,696.667 323.873,696.667 323.873,609.667 330.873,597.287 337.873,609.667 "/>
<path fill="#1C1A34" d="M337.873,699.667h-14c-1.657,0-3-1.343-3-3v-87c0-0.518,0.133-1.026,0.388-1.477l7-12.379
	c0.815-1.442,2.646-1.95,4.088-1.135c0.474,0.268,0.867,0.661,1.135,1.135l7,12.379c0.255,0.451,0.389,0.959,0.389,1.477v87
	C340.873,698.324,339.53,699.667,337.873,699.667z M326.873,693.667h8v-83.211l-4-7.074l-4,7.074V693.667z"/>
<polygon fill="#663333" points="300.748,696.667 286.748,696.667 286.748,609.667 293.748,597.287 300.748,609.667 "/>
<path fill="#1C1A34" d="M300.748,699.667h-14c-1.657,0-3-1.343-3-3v-87c0-0.518,0.133-1.026,0.388-1.477l7-12.379
	c0.815-1.442,2.646-1.95,4.088-1.135c0.474,0.268,0.867,0.661,1.135,1.135l7,12.379c0.255,0.451,0.389,0.959,0.389,1.477v87
	C303.748,698.324,302.405,699.667,300.748,699.667z M289.748,693.667h8v-83.211l-4-7.074l-4,7.074V693.667z"/>
<polygon fill="#663333" points="263.623,696.667 249.623,696.667 249.623,609.667 256.623,597.287 263.623,609.667 "/>
<path fill="#1C1A34" d="M263.623,699.667h-14c-1.657,0-3-1.343-3-3v-87c0-0.518,0.133-1.026,0.388-1.477l7-12.379
	c0.815-1.442,2.646-1.95,4.088-1.135c0.474,0.268,0.867,0.661,1.135,1.135l7,12.379c0.255,0.451,0.389,0.959,0.389,1.477v87
	C266.623,698.324,265.28,699.667,263.623,699.667z M252.623,693.667h8v-83.211l-4-7.074l-4,7.074V693.667z"/>
<polygon fill="#663333" points="226.498,696.667 212.498,696.667 212.498,609.667 219.498,597.287 226.498,609.667 "/>
<path fill="#1C1A34" d="M226.5,699.667h-14c-1.657,0-3-1.343-3-3v-87c0-0.518,0.133-1.026,0.388-1.477l7-12.379
	c0.815-1.442,2.646-1.95,4.088-1.135c0.474,0.268,0.867,0.661,1.135,1.135l7,12.379c0.255,0.451,0.389,0.959,0.389,1.477v87
	C229.5,698.324,228.157,699.667,226.5,699.667L226.5,699.667z M215.5,693.667h8v-83.211l-4-7.074l-4,7.074V693.667z"/>
<polygon fill="#663333" points="189.373,696.667 175.373,696.667 175.373,609.667 182.373,597.287 189.373,609.667 "/>
<path fill="#1C1A34" d="M189.373,699.667h-14c-1.657,0-3-1.343-3-3v-87c0-0.518,0.133-1.026,0.388-1.477l7-12.379
	c0.815-1.442,2.646-1.95,4.088-1.135c0.474,0.268,0.867,0.661,1.135,1.135l7,12.379c0.255,0.451,0.389,0.959,0.389,1.477v87
	C192.373,698.324,191.03,699.667,189.373,699.667L189.373,699.667z M178.373,693.667h8v-83.211l-4-7.074l-4,7.074V693.667z"/>
<path fill="#1C1A34" d="M633,655c-1.657,0-3-1.343-3-3v-22.5c0-1.657,1.343-3,3-3s3,1.343,3,3V652C636,653.657,634.657,655,633,655z
	"/>
<path fill="#1C1A34" d="M851.562,574.771c-1.657-0.001-2.999-1.346-2.998-3.002c0.001-0.754,0.285-1.481,0.798-2.035l8.105-8.77
	c1.109-1.231,3.006-1.33,4.237-0.221s1.33,3.006,0.221,4.237c-0.017,0.019-0.034,0.037-0.051,0.056l-8.1,8.771
	C853.203,574.424,852.401,574.773,851.562,574.771z"/>
<path fill="#1C1A34" d="M850.656,604.667c-1.657,0.001-3.001-1.341-3.002-2.998c-0.001-1.011,0.508-1.954,1.352-2.509l12.68-8.334
	c1.399-0.887,3.253-0.472,4.14,0.928c0.867,1.367,0.492,3.176-0.846,4.086l-12.68,8.334
	C851.812,604.496,851.24,604.667,850.656,604.667z"/>
<path fill="#1C1A34" d="M850.132,589.667c-0.648,0-1.278-0.21-1.795-0.6l-8.467-6.334c-1.291-1.038-1.496-2.927-0.457-4.218
	c0.988-1.228,2.758-1.482,4.051-0.582l8.467,6.334c1.326,0.994,1.594,2.875,0.6,4.2
	C851.965,589.222,851.075,589.667,850.132,589.667L850.132,589.667z"/>
<path fill="#1C1A34" d="M804.55,566c-1.657-0.003-2.998-1.348-2.995-3.005c0.002-0.943,0.446-1.83,1.2-2.395l10.733-8
	c1.317-1.005,3.2-0.752,4.205,0.565c1.005,1.317,0.752,3.2-0.565,4.205c-0.018,0.014-0.036,0.027-0.054,0.04l-10.733,8
	C805.824,565.795,805.195,566.002,804.55,566z"/>
<path fill="#1C1A34" d="M804.551,595c-1.657,0.001-3.001-1.341-3.002-2.998c-0.001-0.983,0.48-1.904,1.287-2.465l16.785-11.668
	c1.356-0.952,3.227-0.624,4.179,0.732c0.952,1.356,0.624,3.227-0.732,4.179c-0.008,0.005-0.015,0.011-0.023,0.016l-16.785,11.667
	C805.759,594.813,805.162,595,804.551,595z"/>
<path fill="#1C1A34" d="M804.027,578.667c-0.763,0-1.497-0.29-2.052-0.813l-11.362-10.666c-1.208-1.134-1.268-3.034-0.134-4.242
	c1.134-1.208,3.034-1.268,4.242-0.134l11.361,10.667c1.208,1.134,1.269,3.032,0.135,4.24
	C805.65,578.325,804.857,578.668,804.027,578.667z"/>
<path fill="#1C1A34" d="M258.679,576.5c-1.657,0-3-1.344-2.999-3.001c0-0.725,0.263-1.425,0.739-1.971l14.82-17
	c1.089-1.249,2.984-1.378,4.233-0.289c1.249,1.089,1.378,2.984,0.289,4.233l-14.819,17
	C260.372,576.126,259.546,576.501,258.679,576.5z"/>
<path fill="#1C1A34" d="M258.678,534c-1.657-0.001-2.999-1.346-2.997-3.003c0.001-0.602,0.182-1.19,0.521-1.687l9.819-14.4
	c0.934-1.369,2.8-1.722,4.169-0.789s1.722,2.8,0.789,4.169l-9.82,14.4C260.6,533.512,259.671,534.002,258.678,534z"/>
<path fill="#1C1A34" d="M258.678,556.5c-0.624,0-1.233-0.195-1.741-0.559l-13.181-9.413c-1.348-0.963-1.66-2.837-0.697-4.185
	s2.837-1.66,4.185-0.697l13.18,9.413c1.348,0.963,1.66,2.837,0.697,4.185C260.557,556.033,259.647,556.501,258.678,556.5
	L258.678,556.5z"/>
<rect x="638.377" y="583.5" fill="#89C6CC" width="37.914" height="36.877"/>
<polygon opacity="0.92" fill="#D0F6FB" enable-background="new    " points="638.377,611.734 659.82,583.5 639.769,583.5 
	638.377,585.332 "/>
<polygon opacity="0.92" fill="#D0F6FB" enable-background="new    " points="665.497,583.5 638.377,619.208 638.377,620.377 
	642.502,620.377 670.51,583.5 "/>
<path fill="#1C1A34" d="M676.291,623.377h-37.914c-1.657,0-3-1.343-3-3V583.5c0-1.657,1.343-3,3-3h37.914c1.657,0,3,1.343,3,3
	v36.877C679.291,622.034,677.948,623.377,676.291,623.377z M641.377,617.377h31.914V586.5h-31.914V617.377z"/>
<path fill="#1C1A34" d="M191.113,524.5c-1.657,0-3-1.344-2.999-3.001c0-0.79,0.312-1.549,0.868-2.11l12.387-12.5
	c1.146-1.197,3.045-1.238,4.242-0.092s1.238,3.045,0.092,4.242c-0.023,0.024-0.047,0.048-0.071,0.072l-12.387,12.5
	C192.681,524.18,191.914,524.501,191.113,524.5z"/>
<path fill="#1C1A34" d="M191.113,556.5c-1.657,0-3-1.343-3-3c0-0.828,0.342-1.619,0.945-2.186l15.887-14.936
	c1.198-1.145,3.097-1.102,4.242,0.095c1.145,1.198,1.102,3.097-0.095,4.242c-0.012,0.011-0.024,0.023-0.036,0.034l-15.888,14.937
	C192.611,556.21,191.876,556.501,191.113,556.5z"/>
<path fill="#1C1A34" d="M191.112,537.5c-0.746,0.001-1.466-0.277-2.017-0.78l-11.772-10.7c-1.226-1.115-1.317-3.012-0.202-4.238
	c1.115-1.226,3.012-1.317,4.238-0.202l0,0l11.772,10.7c1.226,1.114,1.317,3.012,0.202,4.238
	C192.764,537.144,191.958,537.5,191.112,537.5L191.112,537.5z"/>
<path fill="#1C1A34" d="M145.006,587c-1.657-0.001-2.999-1.345-2.999-3.001c0-0.716,0.257-1.409,0.724-1.953l10.734-12.5
	c1.062-1.272,2.954-1.442,4.226-0.38s1.442,2.954,0.38,4.226c-0.017,0.021-0.035,0.042-0.053,0.062l-10.734,12.5
	C146.714,586.62,145.882,587.002,145.006,587z"/>
<path fill="#1C1A34" d="M144.486,568c-0.712,0.001-1.401-0.253-1.943-0.716l-9.987-8.5c-1.285-1.046-1.478-2.936-0.432-4.221
	s2.936-1.478,4.221-0.432c0.034,0.027,0.067,0.055,0.099,0.084l9.988,8.5c1.261,1.074,1.413,2.968,0.339,4.229
	C146.201,567.615,145.365,568,144.486,568z"/>
<path fill="#91A1AE" d="M276.112,236.666c0.075-0.835,0.12-1.679,0.12-2.533c-0.003-15.289-12.4-27.682-27.689-27.679
	c-5.074,0.001-10.05,1.396-14.385,4.034c-4.988-3.642-11.328-4.9-17.329-3.438c-2.613-16.18-17.849-27.179-34.029-24.565
	c-1.305,0.211-2.594,0.508-3.86,0.891c-20.215-15.825-49.431-12.265-65.256,7.95c-4.675,5.973-7.818,12.999-9.154,20.465
	c-0.246-0.006-0.49-0.019-0.737-0.019c-14.541,0.002-26.938,10.542-29.28,24.894L276.112,236.666z"/>
<path fill="#91A1AE" d="M974.091,202.946c-3.329-4.996-10-6.488-15.139-3.385c-0.322-10.046-8.728-17.929-18.774-17.607
	c-2.48,0.08-4.918,0.666-7.164,1.722c-5.481-17.086-23.775-26.494-40.861-21.013c-16.861,5.409-26.286,23.324-21.193,40.283
	L974.091,202.946z"/>
</svg>