<svg height="512.00003pt" viewBox="0 0 512.00003 512.00003" width="512.00003pt" xmlns="http://www.w3.org/2000/svg"><path d="m411.382812 409.464844-80.210937 56.574218-48.214844 33.878907c-8.863281 6.207031-21.078125 4.066406-27.308593-4.78125l-17.40625-24.574219c-3.058594-4.457031-7.867188-7.40625-13.226563-8.105469-44.714844-6.070312-74.921875-48.992187-74.921875-48.992187l-135.671875-192.597656c-9.4375-12.839844-7.433594-30.773438 4.609375-41.214844 6.347656-5.09375 14.519531-7.34375 22.578125-6.210938 8.0625 1.128906 15.300781 5.539063 20 12.183594l-8.53125-12.117188-26.199219-37.203124-9.554687-13.484376c-7.390625-10.511718-7.113281-24.605468.691406-34.816406 1.859375-2.371094 4.039063-4.464844 6.484375-6.230468 6.367188-4.496094 14.265625-6.273438 21.945312-4.945313 7.683594 1.328125 14.523438 5.65625 19.015626 12.03125l-22.53125-32.085937c-6.25-8.59375-7.386719-19.886719-2.972657-29.550782 4.417969-9.664062 13.699219-16.199218 24.289063-17.097656 10.585937-.894531 20.835937 3.984375 26.8125 12.769531l22.613281 32.085938c-6.253906-8.589844-7.390625-19.886719-2.972656-29.550781 4.414062-9.664063 13.699219-16.199219 24.285156-17.09375 10.589844-.898438 20.839844 3.980468 26.816406 12.765624l35.667969 50.6875 71.679688 101.726563c7.074218 10.496094 15.773437 19.800781 25.773437 27.5625 5.113281 3.800781 11.757813 4.882813 17.816406 2.898437 6.054688-1.984374 10.773438-6.789062 12.644531-12.882812v-.082031c-.511718-16.042969-3.410156-29.867188-3.753906-42.414063-.929687-35.410156-4.855468-71.679687 11.1875-83.027344 16.042969-11.347656 36.097656 9.214844 38.65625 36.863282 4.003906 42.667968 23.117188 78.761718 35.40625 130.132812 7.851563 33.28125 2.304688 75.949219-2.5625 101.972656-2.90625 15.582032.601563 31.675782 9.730469 44.632813l2.046875 2.984375c3.023438 4.238281 4.226562 9.507812 3.34375 14.636719-.886719 5.128906-3.785156 9.691406-8.054688 12.671875zm0 0" fill="#fdd7ad"/><path d="m314.078125 290.320312c-.859375.605469-1.820313 1.046876-2.84375 1.296876-4.570313 1.144531-9.203125-1.632813-10.347656-6.203126-4.515625-17.742187-2.195313-36.535156 6.492187-52.648437 2.800782-5.316406 9.726563-17.460937 11.296875-20.480469 3.777344-9.972656 5.835938-20.511718 6.09375-31.171875 4.128907 9.097657 6.648438 18.839844 7.457031 28.796875-1.65625 10.753906-4.960937 21.191406-9.804687 30.933594-6.675781 12.386719-8.453125 26.828125-4.980469 40.464844.839844 3.410156-.496094 6.988281-3.363281 9.011718zm0 0" fill="#cbb292"/><path d="m175.785156 381.796875c-1.851562 1.324219-4.160156 1.847656-6.402344 1.460937-2.242187-.390624-4.238281-1.65625-5.542968-3.523437l-33.910156-48.144531c-1.757813-2.492188-2.050782-5.734375-.769532-8.5s3.9375-4.640625 6.976563-4.914063c3.035156-.277343 5.988281 1.089844 7.742187 3.582031l33.914063 48.144532c2.726562 3.839844 1.832031 9.164062-2.007813 11.894531zm0 0" fill="#fee7ce"/><path d="m217.703125 424.285156c-1.851563 1.300782-4.140625 1.8125-6.367187 1.425782-9.753907-1.28125-18.644532-6.25-24.847657-13.882813-2.4375-3.828125-1.453125-8.890625 2.238281-11.527344 3.6875-2.636719 8.796876-1.925781 11.628907 1.621094 3.660156 3.902344 8.578125 6.386719 13.890625 7.019531 3.386718.601563 6.085937 3.175782 6.839844 6.53125.753906 3.355469-.578126 6.839844-3.382813 8.832032zm-17.261719-22.28125.09375-.082031zm0 0" fill="#fee7ce"/><path d="m377.625 395.671875-8.019531 5.652344c-3.835938 2.359375-8.84375 1.335937-11.445313-2.34375-2.597656-3.675781-1.890625-8.742188 1.613282-11.566407l8.023437-5.648437c3.851563-2.714844 9.175781-1.792969 11.890625 2.058594 2.714844 3.855469 1.789062 9.175781-2.0625 11.890625zm0 0" fill="#fee7ce"/><path d="m337.511719 423.925781-56.175781 39.570313c-3.851563 2.714844-9.175782 1.792968-11.890626-2.058594-2.714843-3.855469-1.792968-9.179688 2.058594-11.894531l56.175782-39.566407c3.851562-2.714843 9.175781-1.792968 11.890624 2.058594 2.714844 3.855469 1.792969 9.175782-2.058593 11.890625zm0 0" fill="#fee7ce"/><path d="m119.464844 512c-65.949219-.070312-119.3945315-53.515625-119.464844-119.464844 0-4.714844 3.820312-8.535156 8.535156-8.535156 4.710938 0 8.53125 3.820312 8.53125 8.535156.0625 56.527344 45.871094 102.335938 102.398438 102.398438 4.714844 0 8.535156 3.820312 8.535156 8.53125 0 4.714844-3.820312 8.535156-8.535156 8.535156zm0 0" fill="#4482c3"/><path d="m128 477.867188c-51.816406-.0625-93.804688-42.050782-93.867188-93.867188 0-4.710938 3.820313-8.535156 8.535157-8.535156 4.710937 0 8.53125 3.824218 8.53125 8.535156.046875 42.394531 34.40625 76.753906 76.800781 76.800781 4.710938 0 8.535156 3.820313 8.535156 8.53125 0 4.714844-3.824218 8.535157-8.535156 8.535157zm0 0" fill="#4482c3"/><path d="m503.464844 128c-4.710938 0-8.53125-3.820312-8.53125-8.535156-.0625-56.527344-45.871094-102.335938-102.398438-102.398438-4.714844 0-8.535156-3.820312-8.535156-8.53125 0-4.714844 3.820312-8.535156 8.535156-8.535156 65.949219.0703125 119.394532 53.515625 119.464844 119.464844 0 4.714844-3.820312 8.535156-8.535156 8.535156zm0 0" fill="#4482c3"/><path d="m469.332031 136.535156c-4.710937 0-8.53125-3.824218-8.53125-8.535156-.046875-42.394531-34.40625-76.753906-76.800781-76.800781-4.710938 0-8.535156-3.820313-8.535156-8.53125 0-4.714844 3.824218-8.535157 8.535156-8.535157 51.816406.0625 93.804688 42.050782 93.867188 93.867188 0 4.710938-3.820313 8.535156-8.535157 8.535156zm0 0" fill="#4482c3"/><g fill="#cbb292"><path d="m119.152344 267.210938c1.753906 2.496093 2.046875 5.734374.765625 8.5-1.277344 2.769531-3.9375 4.640624-6.972657 4.917968-3.039062.273438-5.992187-1.09375-7.746093-3.585937l-57.566407-81.578125c-4.5-6.378906-11.347656-10.714844-19.039062-12.058594-4.71875-.808594-9.566406-.472656-14.128906.980469 1.320312-1.769531 2.855468-3.375 4.566406-4.777344 3.835938-3.066406 8.386719-5.121094 13.226562-5.972656 3.398438-.632813 6.882813-.648438 10.289063-.050781 7.695313 1.34375 14.539063 5.679687 19.039063 12.066406zm0 0"/><path d="m65.449219 88.875 96.121093 136.457031c1.855469 2.488281 2.214844 5.785157.9375 8.613281-1.277343 2.832032-3.988281 4.742188-7.082031 4.996094-3.09375.25-6.078125-1.195312-7.800781-3.78125l-96.125-136.457031c-4.480469-6.417969-11.355469-10.761719-19.074219-12.054687-4.773437-.804688-9.675781-.4375-14.273437 1.074218 1.863281-2.246094 4-4.25 6.355468-5.972656 6.363282-4.476562 14.234376-6.253906 21.90625-4.949219 7.707032 1.304688 14.570313 5.65625 19.035157 12.074219zm0 0"/><path d="m91.101562 22.894531 22.605469 32.09375 35.625 50.695313 60.46875 85.695312c1.753907 2.492188 2.046875 5.730469.769531 8.496094-1.28125 2.769531-3.941406 4.640625-6.976562 4.917969-3.035156.273437-5.988281-1.09375-7.746094-3.585938l-60.492187-85.691406-35.601563-50.664063-22.605468-32.125c-7.488282-10.605468-21.015626-15.085937-33.355469-11.050781 1.761719-2.296875 3.867187-4.3125 6.238281-5.972656 13.339844-9.304687 31.6875-6.089844 41.070312 7.191406zm0 0"/><path d="m309.761719 204.671875c-2.730469 4.953125-7.46875 8.484375-13 9.675781-5.527344 1.191406-11.300781-.070312-15.828125-3.464844-9.984375-7.777343-18.683594-17.078124-25.777344-27.5625l-107.332031-152.363281c-7.398438-10.601562-20.84375-15.140625-33.152344-11.195312 1.710937-2.261719 3.769531-4.242188 6.101563-5.859375 6.382812-4.492188 14.292968-6.257813 21.980468-4.902344 7.6875 1.359375 14.519532 5.722656 18.976563 12.128906l107.359375 152.371094c7.097656 10.476562 15.796875 19.773438 25.78125 27.554688 4.292968 3.113281 9.644531 4.414062 14.890625 3.617187zm0 0"/></g></svg>