<?xml version="1.0"?>
<svg xmlns="http://www.w3.org/2000/svg" xmlns:xlink="http://www.w3.org/1999/xlink" xmlns:svgjs="http://svgjs.com/svgjs" version="1.1" width="512" height="512" x="0" y="0" viewBox="0 0 466 466.19997" style="enable-background:new 0 0 512 512" xml:space="preserve" class=""><g><linearGradient xmlns="http://www.w3.org/2000/svg" id="a"><stop stop-opacity="1" stop-color="#00efd1" offset="0"/><stop stop-opacity="1" stop-color="#00f2b5" offset="1"/></linearGradient><linearGradient xmlns="http://www.w3.org/2000/svg" xmlns:xlink="http://www.w3.org/1999/xlink" id="b" gradientUnits="userSpaceOnUse" x1="173.099985" x2="173.099985" xlink:href="#a" y1="-5.033028" y2="460.022972"/><linearGradient xmlns="http://www.w3.org/2000/svg" xmlns:xlink="http://www.w3.org/1999/xlink" id="c" gradientUnits="userSpaceOnUse" x1="172.599985" x2="172.599985" xlink:href="#a" y1="-5.033028" y2="460.022972"/><linearGradient xmlns="http://www.w3.org/2000/svg" xmlns:xlink="http://www.w3.org/1999/xlink" id="d" gradientUnits="userSpaceOnUse" x1="119.599985" x2="119.599985" xlink:href="#a" y1="-5.033028" y2="460.022972"/><linearGradient xmlns="http://www.w3.org/2000/svg" xmlns:xlink="http://www.w3.org/1999/xlink" id="e" gradientUnits="userSpaceOnUse" x1="225.599985" x2="225.599985" xlink:href="#a" y1="-5.033028" y2="460.022972"/><path xmlns="http://www.w3.org/2000/svg" d="m263.5 318.199219h-21.398438v-24h63.296876c2.066406.046875 4.058593-.757813 5.511718-2.222657 1.457032-1.464843 2.246094-3.460937 2.191406-5.527343v-76.578125c17-3.910156 28.375-18.566406 28.375-36 0-17.4375-11.375-32.097656-28.375-36.007813v-50.957031c.054688-2.058594-.738281-4.050781-2.195312-5.507812-1.457031-1.457032-3.449219-2.25-5.507812-2.195313h-125.296876v-16.804687c15.492188-3.519532 25.957032-18 24.445313-33.816407-1.515625-15.816406-14.539063-28.046875-30.421875-28.566406-15.878906-.515625-29.671875 10.839844-32.214844 26.523437-2.542968 15.683594 6.960938 30.816407 22.191406 35.339844v17.320313h-123.300781c-2.058593-.054688-4.050781.738281-5.507812 2.195312s-2.25 3.445313-2.191407 5.503907v50.957031c-17 3.910156-28.378906 18.566406-28.378906 36 0 17.4375 11.378906 32.105469 28.378906 36.015625v76.578125c-.058593 2.066406.730469 4.0625 2.1875 5.527343 1.453126 1.464844 3.445313 2.269532 5.511719 2.222657h63.300781v24h-21.402343c-45.347657 0-82.597657 37.125-82.597657 82.476562v57.722657c0 4.421874 3.933594 7.800781 8.351563 7.800781h329.292969c4.417968 0 8.355468-3.382813 8.355468-7.800781v-57.722657c0-45.351562-37.25-82.476562-82.601562-82.476562zm-106-286.597657c0-8.617187 6.984375-15.601562 15.601562-15.601562 8.613282 0 15.597657 6.984375 15.597657 15.601562 0 8.613282-6.984375 15.597657-15.597657 15.597657-8.613281-.007813-15.59375-6.988281-15.601562-15.597657zm167.976562 142.265626c0 8.511718-4.375 15.839843-12.375 19.148437v-38.300781c8 3.308594 12.375 10.640625 12.375 19.152344zm-304.753906 0c0-8.511719 4.378906-15.84375 12.378906-19.152344v38.300781c-8-3.308594-12.378906-10.636719-12.378906-19.148437zm28.378906-78.667969h248v183h-248zm71 199h106v24h-106zm129 156h-152v-56h152zm81 0h-65v-64.128907c0-4.417968-4.078124-7.871093-8.5-7.871093h-167c-4.417968 0-8.5 3.453125-8.5 7.871093v64.128907h-65v-49.523438c0-36.527343 30.070313-66.476562 66.597657-66.476562h180.800781c36.53125 0 66.601562 29.949219 66.601562 66.476562zm0 0" fill="url(#b)" data-original="url(#b)" style=""/><path xmlns="http://www.w3.org/2000/svg" d="m246.101562 203.199219c0-4.417969-3.582031-8-8-8h-131c-4.417968 0-8 3.582031-8 8v49c0 4.417969 3.582032 8 8 8h131c4.417969 0 8-3.582031 8-8zm-15 8v9h-116v-9zm-116 34v-9h116v9zm0 0" fill="url(#c)" data-original="url(#c)" style=""/><path xmlns="http://www.w3.org/2000/svg" d="m146.101562 129.199219c0-4.417969-3.582031-8-8-8h-37c-4.417968 0-8 3.582031-8 8v37c0 4.417969 3.582032 8 8 8h37c4.417969 0 8-3.582031 8-8zm-37 8h22v21h-22zm0 0" fill="url(#d)" data-original="url(#d)" style=""/><path xmlns="http://www.w3.org/2000/svg" d="m252.101562 129.199219c0-4.417969-3.582031-8-8-8h-37c-4.417968 0-8 3.582031-8 8v37c0 4.417969 3.582032 8 8 8h37c4.417969 0 8-3.582031 8-8zm-37 8h22v21h-22zm0 0" fill="url(#e)" data-original="url(#e)" style=""/></g></svg>
