<?xml version="1.0" standalone="no"?><svg xmlns="http://www.w3.org/2000/svg" viewBox="0 0 1440 320"><path fill="#00f2b5" fill-opacity="1" d="M0,96L30,85.3C60,75,120,53,180,90.7C240,128,300,224,360,240C420,256,480,192,540,176C600,160,660,192,720,218.7C780,245,840,267,900,261.3C960,256,1020,224,1080,197.3C1140,171,1200,149,1260,149.3C1320,149,1380,171,1410,181.3L1440,192L1440,320L1410,320C1380,320,1320,320,1260,320C1200,320,1140,320,1080,320C1020,320,960,320,900,320C840,320,780,320,720,320C660,320,600,320,540,320C480,320,420,320,360,320C300,320,240,320,180,320C120,320,60,320,30,320L0,320Z" style="--darkreader-inline-fill:#00d5a0;" data-darkreader-inline-fill=""></path></svg>