<svg id="filled_outline" height="512" viewBox="0 0 512 512" width="512" xmlns="http://www.w3.org/2000/svg" data-name="filled outline"><g fill="#7b81c6"><path d="m455.735 346.235-15.362-4.471a193.3 193.3 0 0 0 -.052-107.705l15.358-4.487a209.294 209.294 0 0 1 .056 116.663z"/><path d="m56.321 346.428a209.294 209.294 0 0 1 -.056-116.663l15.362 4.471a193.3 193.3 0 0 0 .052 107.7z"/><path d="m486.751 354.2-15.382-4.4a225.408 225.408 0 0 0 -2.364-131.318l15.211-4.96a241.4 241.4 0 0 1 2.535 140.678z"/><path d="m25.249 354.2a241.4 241.4 0 0 1 2.535-140.68l15.216 4.96a225.408 225.408 0 0 0 -2.369 131.32z"/></g><path d="m391 327c-3.939-3.934-7-7-7-7v-100a28 28 0 0 0 -56 0v60l-112-112a22.627 22.627 0 0 0 -32 0 22.627 22.627 0 0 0 0 32l-16-16a22.627 22.627 0 0 0 -32 0 22.627 22.627 0 0 0 0 32l16 16a22.628 22.628 0 0 0 -32 0 22.627 22.627 0 0 0 0 32l24.067 24.067a22.723 22.723 0 0 0 -32.134 0 22.722 22.722 0 0 0 -.135 32l143.193 143.15a58.235 58.235 0 0 0 40.909 16.783 58.24 58.24 0 0 0 41.159-17.035l54.411-54.352a56.384 56.384 0 0 0 16.53-39.89v-.605a58.03 58.03 0 0 0 -17-41.118z" fill="#ecb347"/><path d="m391.465 392.613-54.411 54.352a58.24 58.24 0 0 1 -41.154 17.035 58.235 58.235 0 0 1 -40.9-16.783l-143.2-143.151a22.616 22.616 0 0 1 -5.051-7.924 22.707 22.707 0 0 0 5.051 23.924l143.191 143.151a58.235 58.235 0 0 0 40.909 16.783 58.24 58.24 0 0 0 41.159-17.035l54.411-54.352a56.384 56.384 0 0 0 16.53-39.89v-.605a58.637 58.637 0 0 0 -.531-7.769 56.377 56.377 0 0 1 -16.004 32.264z" fill="#c18423"/><path d="m246.671 101.951 24.529-10.194 22.303 14.426-2.116-26.478 20.613-16.754-25.836-6.17-9.564-24.781-13.852 22.665-26.524 1.438 17.276 20.178z" fill="#96d6e4"/><path d="m260 127.604h16v40.792h-16z" fill="#7b81c6" transform="matrix(.981 -.196 .196 .981 -23.821 55.433)"/><path d="m275.669 160h48.662v16h-48.662z" fill="#7b81c6" transform="matrix(.164 -.986 .986 .164 84.958 436.293)"/><path d="m136 184c-.461.461-.884.945-1.3 1.434a22.548 22.548 0 0 1 17.3 6.566l96 96-20 20-76-76a22.627 22.627 0 0 0 -32 0c-.461.461-.884.945-1.3 1.434a22.548 22.548 0 0 1 17.3 6.566l80 80-20 20-51.933-51.933a22.723 22.723 0 0 0 -32.134 0c-.453.453-.868.929-1.274 1.409a22.641 22.641 0 0 1 17.408 6.591l67.933 67.933 76-76-104-104a22.627 22.627 0 0 0 -32 0z" fill="#f6e597"/><path d="m343.732 312v-92a28.007 28.007 0 0 1 20.134-26.872 28 28 0 0 0 -35.866 26.872v60l-112-112a22.627 22.627 0 0 0 -32 0c-.461.461-.884.945-1.3 1.434a22.548 22.548 0 0 1 17.3 6.566l128 128v8l-20.229 20.229a39.275 39.275 0 0 0 0 55.542l36.353 36.085 7.876-7.856-28.5-28.229a39.275 39.275 0 0 1 0-55.542z" fill="#f6e597"/><path d="m440.321 234.059a193.3 193.3 0 0 1 .052 107.705l15.362 4.471a209.294 209.294 0 0 0 -.056-116.663z"/><path d="m71.627 234.236-15.362-4.471a209.294 209.294 0 0 0 .056 116.663l15.358-4.487a193.3 193.3 0 0 1 -.052-107.7z"/><path d="m469.005 218.48a225.408 225.408 0 0 1 2.364 131.32l15.382 4.4a241.4 241.4 0 0 0 -2.535-140.682z"/><path d="m27.784 213.52a241.4 241.4 0 0 0 -2.535 140.68l15.382-4.4a225.408 225.408 0 0 1 2.369-131.32z"/><path d="m319.8 61.174a8 8 0 0 0 -5.942-6l-21.745-5.193-8.05-20.858a8 8 0 0 0 -14.29-1.291l-11.658 19.068-22.324 1.211a8 8 0 0 0 -5.644 13.192l14.54 16.982-5.747 21.615a8 8 0 0 0 10.8 9.444l20.644-8.58 18.775 12.136a8 8 0 0 0 12.319-7.355l-1.778-22.284 17.349-14.1a8 8 0 0 0 2.751-7.987zm-33.459 12.326a8 8 0 0 0 -2.928 6.846l.824 10.319-8.693-5.623a8 8 0 0 0 -7.415-.67l-9.56 3.974 2.661-10.005a8 8 0 0 0 -1.653-7.26l-6.734-7.864 10.338-.561a8 8 0 0 0 6.393-3.816l5.4-8.834 3.728 9.659a8 8 0 0 0 5.6 4.9l10.069 2.405z"/><path d="m260 127.604h16v40.792h-16z" transform="matrix(.981 -.196 .196 .981 -23.825 55.447)"/><path d="m275.669 160h48.662v16h-48.662z" transform="matrix(.164 -.986 .986 .164 84.958 436.293)"/><path d="m173.255 382.568-5.619 5.695 81.736 80.648a66.239 66.239 0 0 0 93.336-.286l22.946-22.925-11.308-11.32-22.946 22.925a50.239 50.239 0 0 1 -70.791.217l-81.671-80.585-61.438-62.48a14.723 14.723 0 0 1 20.909-20.732l63.932 63.932 11.314-11.314-88-88a14.628 14.628 0 1 1 20.686-20.687l88 88 11.314-11.314-104-104a14.628 14.628 0 1 1 20.686-20.687l16 16 88 88 11.314-11.314-88-88a14.628 14.628 0 1 1 20.687-20.686l88 88 11.314-11.314-88-88a30.607 30.607 0 0 0 -51.106 13.289 30.622 30.622 0 0 0 -42.926 42.9 30.638 30.638 0 0 0 -13.282 51.123l4.993 4.993a30.737 30.737 0 0 0 -13.242 51.026l61.457 62.5z"/><path d="m392 316.685v-96.685a36 36 0 0 0 -72 0v88.687l-17.885 17.884a47.329 47.329 0 0 0 0 66.858l12.228 12.228 11.314-11.314-12.229-12.229a31.309 31.309 0 0 1 0-44.228l20.229-20.229a8 8 0 0 0 2.343-5.657v-92a20 20 0 0 1 40 0v100a8 8 0 0 0 2.343 5.656l7.006 7a49.767 49.767 0 0 1 14.651 35.462v.606a48.065 48.065 0 0 1 -14.189 34.229l-15.465 15.447 11.308 11.321 15.464-15.448a63.96 63.96 0 0 0 18.882-45.549v-.606a65.666 65.666 0 0 0 -19.344-46.781z"/></svg>